Coordinates
version=1
nRows=65
nColumns=12
inDegrees=yes

Units are S.I. units (second, meters, Newtons, ...)
Angles are in degrees

endheader
time	SC_y	SC_z	SC_x	AC_y	AC_z	AC_x	GH_y	GH_z	GH_yy	EL_x	PS_y
       0.0               -15.2          26.33          17.65          47.62         -18.65          16.04         -140.1          35.56         -175.2          102.2          8.926
   0.01371               -15.2          26.32          17.65          47.62         -18.65          16.03         -140.1          35.56         -175.2          102.2          8.942
   0.02742              -15.21          26.32          17.65          47.62         -18.65          16.03         -140.1          35.57         -175.1          102.2          8.959
   0.04113              -15.21          26.31          17.65          47.62         -18.65          16.02         -140.0          35.58         -175.0          102.2          8.977
   0.05484              -15.22          26.31          17.65          47.63         -18.65          16.02         -140.0          35.58         -175.0          102.2          8.997
   0.06855              -15.22           26.3          17.65          47.63         -18.65          16.01         -140.0          35.59         -174.9          102.2          9.018
   0.08226              -15.23           26.3          17.65          47.63         -18.65          16.01         -140.0           35.6         -174.9          102.2           9.04
   0.09597              -15.23          26.29          17.65          47.63         -18.65           16.0         -139.9          35.61         -174.8          102.2          9.063
    0.1097              -15.24          26.29          17.65          47.64         -18.65           16.0         -139.9          35.62         -174.7          102.2          9.089
    0.1234              -15.24          26.28          17.65          47.64         -18.65          15.99         -139.9          35.63         -174.6          102.2          9.116
    0.1371              -15.25          26.27          17.65          47.64         -18.65          15.98         -139.8          35.64         -174.5          102.2          9.145
    0.1508              -15.26          26.26          17.65          47.65         -18.65          15.97         -139.8          35.65         -174.4          102.2          9.177
    0.1645              -15.26          26.26          17.65          47.65         -18.65          15.96         -139.7          35.66         -174.3          102.2          9.211
    0.1782              -15.27          26.25          17.64          47.66         -18.65          15.95         -139.7          35.67         -174.2          102.2          9.247
    0.1919              -15.28          26.24          17.64          47.66         -18.65          15.94         -139.6          35.69         -174.1          102.2          9.287
    0.2057              -15.29          26.23          17.64          47.67         -18.65          15.93         -139.6           35.7         -174.0          102.2           9.33
    0.2194               -15.3          26.21          17.64          47.67         -18.65          15.92         -139.5          35.72         -173.8          102.2          9.377
    0.2331              -15.31           26.2          17.64          47.68         -18.65          15.91         -139.5          35.74         -173.7          102.2          9.428
    0.2468              -15.32          26.19          17.64          47.68         -18.65          15.89         -139.4          35.76         -173.5          102.2          9.483
    0.2605              -15.34          26.17          17.64          47.69         -18.65          15.88         -139.3          35.78         -173.3          102.2          9.544
    0.2742              -15.35          26.15          17.64           47.7         -18.65          15.86         -139.2           35.8         -173.1          102.2          9.611
    0.2879              -15.37          26.14          17.63          47.71         -18.65          15.84         -139.1          35.83         -172.9          102.2          9.684
    0.3016              -15.39          26.11          17.63          47.72         -18.65          15.82         -139.0          35.86         -172.6          102.2          9.766
    0.3153              -15.41          26.09          17.63          47.73         -18.65          15.79         -138.9          35.89         -172.4          102.2          9.856
    0.3291              -15.43          26.07          17.63          47.74         -18.65          15.77         -138.8          35.93         -172.1          102.1          9.956
    0.3428              -15.46          26.04          17.63          47.75         -18.65          15.74         -138.6          35.97         -171.7          102.1          10.07
    0.3565              -15.48          26.01          17.62          47.77         -18.65           15.7         -138.5          36.01         -171.3          102.1          10.19
    0.3702              -15.52          25.97          17.62          47.79         -18.65          15.67         -138.3          36.06         -170.9          102.1          10.33
    0.3839              -15.55          25.93          17.61           47.8         -18.65          15.63         -138.1          36.12         -170.4          102.1          10.49
    0.3976              -15.59          25.89          17.61          47.83         -18.65          15.58         -137.9          36.19         -169.9          102.1          10.67
    0.4113              -15.64          25.83          17.61          47.85         -18.65          15.52         -137.6          36.26         -169.2          102.1          10.88
     0.425              -15.69          25.77           17.6          47.88         -18.65          15.46         -137.3          36.35         -168.5          102.1          11.12
    0.4387              -15.75           25.7          17.59          47.91         -18.65          15.39         -136.9          36.44         -167.7          102.0          11.39
    0.4525              -15.82          25.62          17.59          47.95         -18.66          15.31         -136.5          36.56         -166.7          102.0          11.71
    0.4662              -15.91          25.53          17.58          47.99         -18.66          15.21         -136.1          36.69         -165.6          102.0          12.08
    0.4799               -16.0          25.42          17.57          48.04         -18.66          15.09         -135.5          36.85         -164.2          102.0          12.51
    0.4936              -16.12          25.29          17.55          48.11         -18.66          14.95         -134.8          37.04         -162.6          101.9          13.03
    0.5073              -16.26          25.13          17.54          48.18         -18.66          14.79         -134.0          37.26         -160.7          101.9          13.66
     0.521              -16.43          24.94          17.52          48.27         -18.66          14.59         -133.1          37.53         -158.4          101.8          14.41
    0.5347              -16.64           24.7           17.5          48.38         -18.66          14.35         -131.9          37.86         -155.6          101.8          15.33
    0.5484              -16.89          24.42          17.47          48.51         -18.67          14.05         -130.4          38.27         -152.1          101.7          16.47
    0.5621              -17.21          24.06          17.44          48.68         -18.67          13.67         -128.6          38.78         -147.8          101.6          17.89
    0.5758              -17.61           23.6           17.4          48.89         -18.67           13.2         -126.3          39.43         -142.3          101.5          19.67
    0.5896              -18.12          23.03          17.34          49.16         -18.68           12.6         -123.4          40.24         -135.4          101.3          21.94
    0.6033              -18.77          22.29          17.28          49.51         -18.68          11.84         -119.7          41.29         -126.5          101.1          24.85
     0.617               -19.6          21.35          17.19          49.95         -18.69          10.85         -114.9          42.63         -115.1          100.9          28.58
    0.6307              -20.67          20.14          17.08          50.52          -18.7          9.598         -108.7          44.35         -100.5          100.6          33.34
    0.6444              -22.01          18.62          16.93          51.23         -18.72          8.018         -101.1          46.51         -82.18          100.1          39.33
    0.6581              -23.65          16.78          16.76          52.09         -18.73          6.093         -91.68          49.13         -59.85          99.65          46.63
    0.6718              -25.55          14.63          16.56           53.1         -18.75          3.861         -80.81          52.18         -33.96          99.07          55.09
    0.6855               -27.6          12.31          16.35          54.18         -18.77          1.445         -69.05          55.48         -5.934          98.45          64.25
    0.6992              -29.65          9.991          16.13          55.27         -18.79        -0.9716         -57.28          58.78          22.09          97.82          73.41
     0.713              -31.55          7.847          15.93          56.28         -18.81         -3.203         -46.41          61.82          47.98          97.25          81.87
    0.7267              -33.18          5.998          15.76          57.14         -18.83         -5.129         -37.04          64.45          70.31          96.75          89.17
    0.7404              -34.53          4.481          15.62          57.85         -18.84         -6.708         -29.35          66.61          88.63          96.34          95.16
    0.7541              -35.59          3.274           15.5          58.42         -18.85         -7.965         -23.23          68.32          103.2          96.02          99.93
    0.7678              -36.43          2.329          15.42          58.86         -18.86         -8.949         -18.44          69.67          114.6          95.76          103.7
    0.7815              -37.08          1.593          15.35          59.21         -18.87         -9.715         -14.71          70.71          123.5          95.57          106.6
    0.7952              -37.59          1.018          15.29          59.47         -18.87         -10.31         -11.79          71.53          130.5          95.41          108.8
    0.8089              -37.99         0.5655          15.25          59.69         -18.88         -10.78         -9.496          72.17          135.9          95.29          110.6
    0.8226              -38.31         0.2063          15.22          59.86         -18.88         -11.16         -7.675          72.68          140.3          95.19          112.0
    0.8363              -38.56       -0.08169          15.19          59.99         -18.88         -11.46         -6.215          73.09          143.7          95.12          113.2
    0.8501              -38.77        -0.3151          15.17           60.1         -18.88          -11.7         -5.032          73.43          146.6          95.05          114.1
    0.8638              -38.94        -0.5061          15.15          60.19         -18.89          -11.9         -4.063           73.7          148.9           95.0          114.8
    0.8775              -39.08         -0.664          15.14          60.26         -18.89         -12.07         -3.263          73.92          150.8          94.96          115.5
